<svg width="134" height="38" viewBox="0 0 134 38" fill="none" xmlns="http://www.w3.org/2000/svg">
<rect x="1" y="1" width="36" height="36" rx="3" fill="#FAFAFF" stroke="#E5E7F9"/>
<circle cx="19" cy="19" r="8.5" stroke="#696D8B"/>
<rect x="16.1875" y="15.625" width="1.60714" height="6.75" rx="0.803571" fill="#696D8B"/>
<rect x="20.2031" y="15.625" width="1.60714" height="6.75" rx="0.803571" fill="#696D8B"/>
<rect x="49" y="1" width="36" height="36" rx="3" fill="#FAFAFF" stroke="#E5E7F9"/>
<path fill-rule="evenodd" clip-rule="evenodd" d="M73.3546 12.1947C74.8155 13.403 75.0054 15.5508 73.7788 16.9919L67.1292 24.8038C67.0838 24.8608 67.0272 24.9094 66.9617 24.946C66.9042 24.9783 66.8419 25.0001 66.7779 25.0111L62.2447 25.9373C62.0737 25.9723 61.8958 25.9281 61.7621 25.8175C61.6283 25.7068 61.5533 25.5418 61.5585 25.3697L61.6952 20.8561C61.6817 20.7118 61.7244 20.5623 61.8265 20.4425L68.4885 12.616C69.7151 11.1749 71.8938 10.9863 73.3546 12.1947ZM62.8329 21.0109L69.363 13.3393C70.1841 12.3748 71.6424 12.2485 72.6203 13.0574C73.5982 13.8662 73.7253 15.3039 72.9042 16.2685L66.37 23.9448L62.7215 24.6903L62.8329 21.0109Z" fill="#696D8B"/>
<rect x="97" y="1" width="36" height="36" rx="3" fill="#FAFAFF" stroke="#E5E7F9"/>
<circle cx="108.213" cy="19.4162" r="1.71311" stroke="#696D8B"/>
<circle cx="114.994" cy="19.4162" r="1.71311" stroke="#696D8B"/>
<circle cx="121.791" cy="19.4162" r="1.71311" stroke="#696D8B"/>
</svg>
